<?xml version="1.0" standalone="no"?>
<!DOCTYPE svg PUBLIC "-//W3C//DTD SVG 20010904//EN"
 "http://www.w3.org/TR/2001/REC-SVG-20010904/DTD/svg10.dtd">
<svg version="1.0" xmlns="http://www.w3.org/2000/svg"
 width="576.000000pt" height="576.000000pt" viewBox="0 0 576.000000 576.000000"
 preserveAspectRatio="xMidYMid meet">
<metadata>
Created by potrace 1.11, written by Peter Selinger 2001-2013
</metadata>
<g transform="translate(0.000000,576.000000) scale(0.100000,-0.100000)"
fill="#000000" stroke="none">
<path d="M231 5589 c-61 -18 -171 -99 -171 -126 0 -6 -4 -13 -10 -15 -5 -1
-19 -30 -30 -62 -16 -44 -20 -75 -17 -120 3 -34 6 -61 7 -61 1 0 3 -7 5 -16
15 -80 113 -184 198 -211 30 -9 120 -19 177 -18 14 0 34 0 45 0 11 0 29 0 40
0 11 1 26 1 33 1 6 -1 19 -1 27 -1 8 0 23 0 33 0 9 0 37 0 62 1 25 1 51 1 58
0 6 0 19 -1 27 -1 8 0 22 0 30 0 8 0 22 0 30 0 8 0 22 0 30 0 8 0 22 0 30 0 8
0 21 0 28 1 6 0 30 0 52 -1 76 -4 215 29 215 51 0 5 6 9 13 9 19 0 83 76 108
129 33 68 32 197 -1 266 -30 62 -93 124 -156 156 l-49 24 -390 2 c-228 1 -404
-3 -424 -8z"/>
<path d="M2151 5589 c-61 -18 -171 -99 -171 -126 0 -6 -4 -13 -10 -15 -5 -1
-19 -28 -30 -60 -38 -108 -12 -242 64 -321 78 -83 151 -108 306 -107 14 0 34
0 45 0 11 0 29 0 40 0 11 1 26 1 33 1 12 -1 31 -1 57 -1 45 1 133 1 150 0 22
-1 19 -1 91 1 28 1 55 -1 60 -4 6 -3 16 -2 23 3 8 4 27 4 42 0 16 -5 29 -5 29
0 0 5 13 5 30 0 19 -5 30 -5 30 1 0 6 5 7 10 4 6 -4 41 -6 78 -6 37 1 76 1 87
1 11 -1 27 -1 35 -1 8 1 29 1 45 0 17 0 37 0 45 1 8 0 24 0 35 0 22 -1 20 -1
91 1 28 1 55 -1 60 -4 6 -3 16 -2 23 3 8 4 27 4 42 0 16 -5 29 -5 29 0 0 5 13
5 30 0 19 -5 30 -5 30 1 0 6 5 7 10 4 6 -4 41 -6 78 -6 37 1 76 1 87 1 31 -2
36 -1 100 4 78 6 82 7 135 35 157 81 215 293 122 446 -30 51 -84 99 -142 128
l-45 22 -870 2 c-538 1 -883 -2 -904 -8z"/>
<path d="M1285 3999 c-3 -4 -14 -5 -24 -2 -11 3 -48 -4 -83 -16 -78 -26 -146
-85 -184 -161 -24 -47 -28 -67 -28 -140 0 -69 4 -94 24 -134 45 -93 142 -167
236 -180 43 -6 123 -9 139 -6 6 1 15 1 20 0 9 -2 66 -1 115 1 8 0 51 0 95 -1
44 -1 85 -1 90 0 6 1 15 1 20 0 9 -2 66 -1 115 1 8 0 51 0 95 -1 44 -1 85 -1
90 0 6 1 15 1 20 0 9 -2 66 -1 115 1 8 0 51 0 95 -1 44 -1 85 -1 90 0 6 1 15
1 20 0 6 -1 33 -1 60 -1 73 2 118 1 124 -3 3 -2 15 0 26 4 11 4 32 4 47 -1 15
-4 30 -4 33 1 3 5 16 5 28 1 12 -5 34 -5 49 -1 14 5 29 6 32 3 3 -3 47 -5 98
-4 51 1 102 1 113 1 11 -1 27 -1 35 -1 53 2 114 0 121 -4 4 -3 10 -1 13 4 4 6
18 6 35 1 16 -4 31 -7 33 -5 2 2 26 6 53 10 28 3 69 16 92 27 52 26 123 86
123 105 0 7 3 13 8 13 4 0 16 19 27 43 29 64 26 196 -5 262 -30 61 -94 125
-154 153 -39 19 -128 37 -161 34 -28 -3 -158 -2 -288 1 -42 1 -77 -1 -77 -4 0
-3 -20 -3 -45 1 -55 8 -53 8 -93 -1 -17 -4 -35 -3 -38 2 -3 5 -10 7 -15 4 -8
-6 -65 -7 -209 -4 -30 0 -59 0 -65 -1 -5 -2 -14 -2 -19 -1 -5 1 -41 2 -80 1
-39 0 -80 0 -91 0 -11 1 -27 1 -35 1 -24 -1 -108 0 -193 2 -42 1 -77 -1 -77
-4 0 -3 -20 -3 -45 1 -55 8 -53 8 -93 -1 -17 -4 -35 -3 -38 2 -3 5 -10 7 -15
4 -9 -6 -89 -7 -212 -4 -31 1 -60 0 -62 -3 -3 -3 -26 -2 -50 2 -25 4 -48 4
-50 -1z"/>
<path d="M4487 4003 c-2 -1 -25 -5 -51 -8 -156 -16 -285 -172 -272 -331 8
-103 34 -157 105 -222 54 -49 116 -74 194 -78 38 -2 73 -7 77 -9 5 -3 11 -1
15 4 3 6 15 7 28 2 12 -5 34 -5 49 -1 14 5 29 6 32 3 4 -4 86 -5 196 -2 8 0
24 0 35 -1 11 0 44 0 74 0 29 0 57 -3 62 -5 4 -3 10 -1 14 5 4 6 11 8 16 4 6
-3 70 -5 142 -5 73 1 141 1 152 1 30 -2 35 -2 100 4 78 6 82 7 135 35 127 66
198 231 157 366 -28 92 -89 165 -170 203 -39 19 -128 37 -162 34 -28 -3 -158
-2 -288 1 -42 1 -77 -1 -77 -4 0 -3 -20 -3 -45 1 -55 8 -53 8 -93 -1 -17 -4
-35 -3 -38 2 -3 5 -10 7 -15 4 -9 -6 -89 -7 -212 -4 -31 1 -60 0 -62 -3 -3 -3
-25 -2 -50 2 -25 4 -46 5 -48 3z"/>
<path d="M1317 2403 c-1 -1 -27 -4 -57 -7 -75 -7 -79 -8 -130 -35 -106 -55
-175 -179 -166 -297 6 -74 18 -115 47 -156 60 -88 141 -135 246 -144 37 -3 74
-7 81 -9 6 -3 12 -1 12 4 0 4 20 5 45 1 55 -8 53 -8 93 1 17 4 35 3 38 -2 3
-5 10 -7 15 -4 8 6 65 7 209 4 30 0 60 0 65 1 6 2 14 2 19 1 5 -1 39 -2 75 -1
36 0 74 0 84 0 9 0 28 0 42 0 14 0 33 1 43 1 9 0 53 0 97 -1 103 -1 150 7 202
32 51 25 123 86 123 104 0 7 4 14 10 16 5 2 19 28 30 60 38 108 12 242 -64
321 -62 66 -115 92 -206 103 -25 3 -50 7 -56 9 -6 2 -17 -1 -24 -5 -7 -5 -23
-5 -34 0 -12 4 -29 4 -40 1 -10 -4 -41 -4 -68 -1 -27 4 -51 3 -54 -2 -3 -5
-10 -6 -15 -2 -6 3 -67 5 -137 5 -135 -1 -149 -2 -184 -1 -13 0 -34 -1 -48 -3
-14 -2 -37 0 -52 4 -15 4 -30 4 -33 -1 -3 -5 -16 -5 -28 -1 -12 5 -34 5 -49 1
-14 -5 -29 -6 -31 -4 -4 5 -97 11 -100 7z"/>
<path d="M3528 2405 c-2 -2 -25 -6 -53 -10 -27 -3 -69 -16 -92 -27 -51 -26
-123 -86 -123 -104 0 -7 -4 -14 -10 -16 -5 -1 -19 -28 -30 -60 -26 -73 -21
-175 11 -244 37 -77 105 -137 194 -169 35 -13 240 -23 250 -13 3 3 21 2 39 -2
19 -4 39 -4 46 0 7 4 26 4 44 1 17 -4 42 -6 56 -4 23 2 38 3 95 3 51 0 127 -1
198 -3 42 -1 77 1 77 4 0 3 20 3 45 -1 55 -8 53 -8 93 1 17 4 35 3 38 -2 3 -5
10 -7 15 -4 8 6 65 7 209 4 30 0 60 0 65 1 6 2 14 2 19 1 5 -1 41 -2 80 -1 39
0 80 0 91 0 11 -1 27 -1 35 -1 24 1 108 0 193 -2 42 -1 77 1 77 4 0 3 20 3 45
-1 55 -8 53 -8 93 1 17 4 34 3 37 -1 3 -4 21 -4 40 0 20 4 44 6 55 3 36 -9
143 35 192 80 69 63 102 134 104 227 1 41 -1 80 -4 85 -4 6 -7 15 -8 21 -4 27
-39 86 -68 117 -62 66 -115 92 -206 103 -25 3 -50 7 -56 9 -6 2 -17 -1 -24 -5
-7 -5 -23 -5 -34 0 -12 4 -29 4 -40 1 -10 -4 -41 -4 -68 -1 -27 4 -51 3 -54
-2 -3 -5 -10 -6 -15 -2 -6 3 -67 5 -137 5 -135 -1 -149 -2 -184 -1 -13 0 -34
-1 -48 -3 -14 -2 -37 0 -52 4 -15 4 -30 4 -33 -1 -3 -5 -16 -5 -28 -1 -12 5
-34 5 -49 1 -14 -5 -29 -6 -32 -3 -4 5 -205 7 -223 2 -5 -1 -12 0 -18 1 -9 2
-66 1 -115 -1 -8 0 -51 0 -95 1 -44 1 -84 1 -90 0 -5 -1 -14 -1 -20 0 -9 2
-65 1 -115 -1 -16 0 -142 1 -175 2 -11 0 -27 0 -35 0 -53 -2 -114 0 -121 4 -4
3 -10 1 -13 -4 -4 -6 -18 -6 -35 -1 -16 4 -31 7 -33 5z"/>
<path d="M318 805 c-2 -2 -23 -6 -48 -10 -25 -3 -64 -16 -87 -27 -51 -25 -123
-86 -123 -104 0 -7 -4 -14 -10 -16 -5 -1 -19 -30 -31 -63 -22 -62 -23 -170 -1
-211 5 -10 16 -32 23 -48 34 -71 123 -138 209 -156 40 -8 332 -10 1065 -8 967
3 1012 4 1053 22 23 10 42 23 42 28 0 4 6 8 13 8 19 0 83 76 108 129 33 67 32
197 -1 265 -51 105 -149 172 -266 181 -37 3 -70 8 -75 11 -5 3 -9 0 -9 -6 0
-6 -5 -8 -10 -5 -6 4 -41 6 -78 6 -37 -1 -76 -1 -87 -1 -11 1 -24 1 -30 1 -11
0 -111 -1 -160 -1 -8 0 -22 0 -30 0 -8 0 -22 0 -30 0 -8 0 -22 0 -30 0 -8 0
-21 0 -27 -1 -14 0 -140 0 -173 2 -22 0 -20 0 -91 -2 -28 -1 -55 1 -60 4 -6 3
-16 2 -23 -3 -8 -4 -27 -4 -42 0 -16 5 -29 5 -29 0 0 -5 -13 -5 -30 0 -19 5
-30 5 -30 -1 0 -6 -5 -7 -10 -4 -6 4 -41 6 -78 6 -37 -1 -76 -1 -87 -1 -11 1
-24 1 -30 1 -11 0 -111 -1 -160 -1 -8 0 -22 0 -30 0 -8 0 -22 0 -30 0 -8 0
-22 0 -30 0 -8 0 -21 0 -27 -1 -14 0 -140 0 -173 2 -22 0 -20 0 -91 -2 -28 -1
-55 1 -60 4 -6 3 -16 2 -23 -3 -8 -4 -26 -4 -42 0 -15 5 -29 7 -31 5z"/>
<path d="M3538 805 c-2 -2 -25 -6 -53 -9 -58 -8 -135 -35 -135 -47 0 -5 -6 -9
-13 -9 -19 0 -79 -71 -108 -128 -33 -66 -33 -195 1 -266 37 -77 132 -160 194
-170 6 -1 16 -5 23 -9 6 -4 188 -6 405 -4 359 2 397 4 436 21 23 11 42 23 42
28 0 4 6 8 13 8 19 0 83 76 108 129 33 68 32 197 -1 265 -51 105 -149 172
-266 181 -37 3 -70 8 -75 11 -5 3 -9 0 -9 -6 0 -6 -5 -8 -10 -5 -6 4 -41 6
-78 6 -37 -1 -76 -1 -87 -1 -22 1 -19 1 -91 -1 -28 -1 -55 1 -60 4 -6 3 -16 2
-24 -3 -8 -5 -21 -5 -30 0 -9 5 -22 5 -30 0 -8 -5 -21 -5 -30 0 -9 5 -22 5
-29 1 -7 -5 -30 -5 -51 -1 -22 4 -41 6 -42 5z"/>
</g>
</svg>
