<svg width="202" height="34" viewBox="0 0 202 34" xmlns="http://www.w3.org/2000/svg">
  <title>
    logo
  </title>
  <g fill="none" fill-rule="evenodd">
    <path d="M49.3594246 11.144c-.5556222 0-1.006043-.4427407-1.006043-.9945312V7.85053125c0-.54926444.4423919-.99453125.9931019-.99453125h9.6617961c.5484751 0 .993102.4527106.993102 1.00296725V21.448c0 2.66668-.6879931 4.6613267-2.064 5.984-1.3760069 1.3226733-3.1413226 1.984-5.296 1.984-2.6880135 0-6.209319-2.549067-6.209319-2.549067-.4587724-.306481-.572674-.9116835-.2425161-1.3681981l1.4156702-1.9574698c.3248345-.4491539.9410215-.5464448 1.3999503-.2186635 0 0 1.9402072 1.5813984 3.4122146 1.5813984.7040035 0 1.3066641-.2719973 1.808-.816.5013358-.5440027.752-1.3599946.752-2.448v-9.4895994c0-.5558197-.4552944-1.0064006-1.0060431-1.0064006h-4.6119139zm25.321957 1.8571226c0-.5484865.4459218-.9931226 1.0011935-.9931226h2.8296129c.552944 0 1.0011936.4428671 1.0011936 1.0000187v15.2159626c0 .5522951-.4459219 1.0000187-1.0011936 1.0000187h-2.8296129c-.5529439 0-1.0011935-.4380645-1.0011935-1.0031458V26.952c-1.1946727 1.6853418-2.7359906 2.528-4.624 2.528-1.8880095 0-3.4719936-.5919941-4.752-1.776s-1.92-2.938655-1.92-5.264v-9.431736c0-.5524305.4459218-1.000264 1.0011935-1.000264h2.8296129c.552944 0 1.0011936.452224 1.0011936 1.0033962V21.384c0 2.6453466.9706569 3.968 2.912 3.968.9600048 0 1.7919965-.3466632 2.496-1.04s1.056-1.7013267 1.056-3.024v-8.2868774zm13.176 15.2316668c0 .5474305-.4429688.9912106-.9945631.9912106h-2.8108738c-.5492821 0-.9945631-.4428671-.9945631-1.0000187V13.0080187c0-.5522951.4429687-1.0000187.9945631-1.0000187h2.8108738c.549282 0 .9945631.4453125.9945631 1.0049854V13.928c1.4506739-1.4720074 3.0826576-2.208 4.896-2.208 1.8133424 0 3.3333272.6399936 4.56 1.92 1.2266728 1.2800064 1.84 2.986656 1.84 5.12v9.4606677c0 .5541251-.4429688 1.0033323-.9945631 1.0033323h-2.8108738c-.5492821 0-.9945631-.4432703-.9945631-1.0044267V19.496c0-2.6453466-.970657-3.968-2.912-3.968-.9600048 0-1.7973298.3466632-2.512 1.04-.7146703.6933368-1.072 1.7119933-1.072 3.056v8.6087894zm19.4480004-.0088081c0 .5522951-.442969 1.0000187-.994564 1.0000187h-2.810873c-.549282 0-.994563-.4428671-.994563-1.0000187V13.0080187c0-.5522951.442968-1.0000187.994563-1.0000187h2.810873c.549283 0 .994564.4428671.994564 1.0000187v15.2159626zm-4.4-22.4079813c.544002-.54400272 1.210662-.816 2-.816.789337 0 1.455997.27199728 2 .816.544002.54400272.816 1.21066272.816 2s-.271998 1.45599728-.816 2c-.544003.5440027-1.210663.816-2 .816-.789338 0-1.455998-.2719973-2-.816-.544003-.54400272-.816-1.21066272-.816-2s.271997-1.45599728.816-2zm16.056 19.568c1.248006 0 2.271996-.4426622 3.072-1.328.800004-.8853378 1.2-2.031993 1.2-3.44s-.399996-2.5599955-1.2-3.456c-.800004-.8960045-1.823994-1.344-3.072-1.344-1.248007 0-2.271996.4479955-3.072 1.344-.800004.8960045-1.2 2.047993-1.2 3.456s.399996 2.5546622 1.2 3.44c.800004.8853378 1.823993 1.328 3.072 1.328zm0 4.096c-2.613347 0-4.783992-.8533248-6.512-2.56-1.728009-1.7066752-2.592-3.8079875-2.592-6.304 0-2.4960125.863991-4.6026581 2.592-6.32 1.728008-1.7173419 3.898653-2.576 6.512-2.576 2.613346 0 4.783991.8586581 6.512 2.576 1.728008 1.7173419 2.592 3.8239875 2.592 6.32 0 2.4960125-.863992 4.5973248-2.592 6.304-1.728009 1.7066752-3.898654 2.56-6.512 2.56zm20.712-13.248c-1.429341 0-2.495997.5066616-3.2 1.52-.704004 1.0133384-1.056 2.3519917-1.056 4.016v6.4504507c0 .5553495-.442969 1.0055493-.994564 1.0055493h-2.810873c-.549282 0-.994563-.4428671-.994563-1.0000187V13.0080187c0-.5522951.442968-1.0000187.994563-1.0000187h2.810873c.549283 0 .994564.4380645.994564 1.0031458V14.28c.618669-.7040035 1.391995-1.3013309 2.32-1.792.928004-.4906691 1.860027-.5888868 1.860027-.5888868.536805-.0989215.975158.2700102.979074.8222458l.017797 2.509282c.003922.5530353-.435156 1.001359-.920898 1.001359zm23.864 1.696c0 3.4773507-1.03999 6.2293232-3.12 8.256-2.080011 2.0266768-5.253312 3.04-9.52 3.04h-6.648158c-.552198 0-.999842-.4468093-.999842-1.0045607V7.86056073c0-.55480357.447599-1.00456073 1.001047-1.00456073h6.902953c3.989353 0 7.050656.97599024 9.184 2.928 2.133344 1.9520098 3.2 4.6666493 3.2 8.144zm-5.024.128c0-2.1973443-.613328-3.8879941-1.84-5.072-1.226673-1.1840059-3.109321-1.776-5.648-1.776h-2.784v13.6h3.168c2.282678 0 4.037327-.5759942 5.264-1.728 1.226672-1.1520058 1.84-2.8266557 1.84-5.024zm22.097704 7.9371794c.374612.4058302.303454.9694546-.170952 1.2524507 0 0-3.369406 2.2343699-5.982752 2.2343699-2.613347 0-4.773325-.8053253-6.48-2.416-1.706676-1.6106747-2.56-3.7706531-2.56-6.48 0-2.7093469.869324-4.863992 2.608-6.464 1.738675-1.600008 3.791988-2.4 6.16-2.4 2.368011 0 4.378658.7146595 6.032 2.144 1.653341 1.4293405 2.48 3.3919875 2.48 5.888v1.5629068c0 .5506794-.446448.9970932-1.005324.9970932h-11.538676c.149334.9386714.639995 1.7066637 1.472 2.304.832004.5973363 1.770661.896 2.816.896 1.685341 0 3.320638-1.1779286 3.320638-1.1779286.463567-.2861229 1.147709-.184028 1.517657.2167492l1.331409 1.4423588zM174.265382 15.688c-.949339 0-1.818663.2879971-2.608.864-.789338.5760029-1.248 1.3546618-1.376 2.336h7.552c-.106668-1.0240051-.490664-1.8133306-1.152-2.368-.661337-.5546694-1.466662-.832-2.416-.832zm16.525254 13.536c-.550768 0-1.159018-.4093453-1.363712-.9273274l-6.083085-15.3933452c-.202389-.5121488.076549-.9273274.63175-.9273274h2.995585c.551295 0 1.161066.4120079 1.3638.9248944l3.556815 8.9982112c.201911.5108051.528451.5128865.731185 0l3.556815-8.9982112c.201911-.5108051.808599-.9248944 1.3638-.9248944h2.995585c.551295 0 .836444.4093453.63175.9273274l-6.083085 15.3933452c-.202389.5121488-.821239.9273274-1.363712.9273274h-2.933491z" fill="#313440"/>
    <g>
      <rect fill="#FBC02D" width="8" height="4" rx="2"/>
      <rect fill="#83858C" x="12" width="14" height="4" rx="2"/>
      <rect fill="#83858C" y="30" width="16" height="4" rx="2"/>
      <rect fill="#EA80FC" x="20" y="30" width="8" height="4" rx="2"/>
      <rect fill="#83858C" x="6" y="10" width="16" height="4" rx="2"/>
      <rect fill="#69F0AE" x="26" y="10" width="10" height="4" rx="2"/>
      <rect fill="#83858C" x="20" y="20" width="16" height="4" rx="2"/>
      <rect fill="#FF5252" x="6" y="20" width="10" height="4" rx="2"/>
    </g>
  </g>
</svg>
