<?xml version="1.0" encoding="utf-8"?>
<!-- Generator: Adobe Illustrator 22.1.0, SVG Export Plug-In . SVG Version: 6.00 Build 0)  -->
<svg version="1.1" id="Layer_1" xmlns="http://www.w3.org/2000/svg" xmlns:xlink="http://www.w3.org/1999/xlink" x="0px" y="0px"
	 viewBox="0 0 54 54" style="enable-background:new 0 0 54 54;" xml:space="preserve">
<style type="text/css">
	.st0{fill:#FFFFFF;}
</style>
<g>
	<path class="st0" d="M5.1,26.8c0.1,0.6,0,1.1-0.3,1.6S4,29.2,3.4,29.3s-1.1,0-1.6-0.4c-0.5-0.3-0.8-0.8-0.9-1.4s0-1.1,0.3-1.6
		C1.6,25.4,2,25.1,2.6,25s1.1,0,1.6,0.3C4.7,25.7,5,26.2,5.1,26.8z M43.9,30.4c1.3,2.1,1.7,4.4,1.2,6.8s-1.7,4.4-3.8,5.8
		c-1.7,1.2-3.5,1.7-5.6,1.7c-0.4,1.5-1.2,2.7-2.4,3.5c-1.2,0.9-2.5,1.3-4,1.2c-1.5,0-2.8-0.6-3.9-1.6c-0.2,0.2-0.3,0.3-0.4,0.3
		c-1.9,1.3-4,1.8-6.3,1.4s-4.1-1.6-5.4-3.5c-0.9-1.4-1.4-2.9-1.5-4.6c-1.5-0.3-2.9-0.9-4-2s-1.9-2.2-2.2-3.6
		c-0.4-1.3-0.4-2.7-0.1-4.2c0.4-1.5,1.1-2.8,2.3-3.9c-0.7-1.1-1-2.3-1.1-3.6c0-1.3,0.2-2.4,0.7-3.5s1.2-2,2.2-2.7
		c1-0.8,2.1-1.2,3.4-1.4c0.6-1.6,1.5-3,2.8-4.1c1.2-1.2,2.6-2,4.1-2.6c1.5-0.6,3-0.7,4.7-0.5s3.1,0.8,4.5,1.9
		c1.3-0.4,2.6-0.6,3.9-0.5c1.3,0.1,2.5,0.4,3.6,1s2.1,1.3,2.9,2.2c0.8,0.9,1.4,2,1.9,3.2c0.4,1.3,0.6,2.6,0.5,3.9
		c1,0.3,1.8,0.8,2.4,1.6c0.7,0.8,1.1,1.6,1.3,2.5s0.1,1.8-0.2,2.8C45.2,29,44.7,29.8,43.9,30.4z M10.1,43.1c0.2,0.1,0.4,0.4,0.4,0.6
		c0.1,0.3,0,0.5-0.1,0.8c-0.1,0.2-0.4,0.4-0.6,0.4c-0.3,0.1-0.5,0-0.7-0.1s-0.4-0.4-0.4-0.6c-0.1-0.3,0-0.5,0.1-0.8
		C8.9,43.2,9.2,43,9.4,43C9.6,42.9,9.9,42.9,10.1,43.1z M12.6,12c0.3,0.4,0.3,0.8,0.3,1.2c-0.1,0.5-0.3,0.8-0.7,1.1
		s-0.8,0.3-1.2,0.3c-0.5-0.1-0.8-0.3-1-0.7c-0.3-0.4-0.3-0.8-0.3-1.2c0.1-0.5,0.3-0.8,0.7-1.1s0.8-0.3,1.2-0.3
		C12,11.4,12.3,11.6,12.6,12z M37.1,37.7c-0.1-0.4-0.3-0.8-0.8-0.9c-0.4-0.2-0.9-0.3-1.4-0.3s-0.9-0.1-1.4-0.3s-0.7-0.6-0.7-1.1
		c-0.1-0.9,0.2-2.2,0.9-3.9c0.7-1.7,1.4-3.4,2.1-5.1s1-2.8,0.9-3.6c-0.3-1.9-1.3-2.8-3.3-2.9c-0.8,0-1.5,0.1-2.1,0.4l-0.1,0.1
		c-0.1,0-0.1,0.1-0.1,0.1s-0.1,0-0.1,0.1c-0.1,0-0.1,0-0.1,0.1h-0.1c-0.1,0-0.1,0-0.2,0c0,0-0.1-0.1-0.2-0.1s-0.1-0.1-0.2-0.1
		s-0.1-0.1-0.3-0.2c-0.1-0.1-0.2-0.2-0.3-0.3s-0.1-0.1-0.2-0.2s-0.2-0.2-0.3-0.2c-0.1,0-0.2-0.1-0.3-0.2C28.7,19,28.6,19,28.5,19
		c-0.1,0-0.2-0.1-0.3-0.1c-0.6-0.1-1-0.1-1.3,0.1s-0.8,0.4-1.3,0.9c0,0-0.1,0.1-0.3,0.2S25,20.3,25,20.4c-0.1,0.1-0.2,0.2-0.4,0.3
		c-0.2,0.1-0.3,0.2-0.5,0.2c-0.1,0-0.3,0-0.5-0.1c-1-0.5-1.8-0.9-2.3-1.1c-0.8-0.3-1.6-0.3-2.6,0.1s-1.7,1-2.1,1.8
		c-0.3,0.5-0.7,1.4-1.1,2.7c-0.5,1.3-0.9,2.5-1.2,3.7s-0.7,2.4-1.1,3.7c-0.4,1.3-0.6,2-0.6,2c-0.4,1.3-0.2,2.4,0.5,3.3
		s1.8,1.4,3.1,1.3c0.6,0,1-0.2,1.4-0.4s0.7-0.7,1.1-1.3c0.1-0.2,0.9-2.1,2.2-5.6c1.3-3.5,2.1-5.3,2.1-5.4c0.1-0.2,0.3-0.4,0.6-0.5
		c0.3-0.1,0.6-0.1,0.8,0c0.5,0.3,0.7,0.8,0.6,1.5c0,0.3-0.5,1.6-1.4,3.9s-1.4,3.5-1.4,3.7c-0.1,0.7,0.1,1.2,0.5,1.6
		c0.5,0.3,1,0.4,1.7,0.2s1.2-0.7,1.5-1.4c0.1-0.1,0.5-1,1.3-2.6s1.5-3.1,2.3-4.6s1.2-2.3,1.3-2.5c0.4-0.5,0.8-0.8,1.1-0.8
		c0.5,0,0.8,0.4,0.7,1.1c0,0.3-0.6,1.7-1.8,4.1c-1.2,2.4-1.8,3.9-2,4.5c-0.2,1-0.1,1.9,0.4,2.9c0.5,0.9,1.2,1.6,2.1,2.1
		c0.3,0.2,0.8,0.3,1.4,0.4c0.6,0.1,1.3,0.2,2,0.2s1.3-0.1,1.7-0.4C37,38.8,37.2,38.3,37.1,37.7z M17,4.2c0.1,0.3,0,0.6-0.1,0.9
		c-0.2,0.3-0.4,0.4-0.7,0.5c-0.3,0.1-0.6,0-0.9-0.2C15,5.2,14.8,5,14.8,4.7c-0.1-0.3,0-0.6,0.2-0.9s0.4-0.4,0.7-0.5
		c0.3-0.1,0.6,0,0.9,0.2C16.8,3.6,16.9,3.9,17,4.2z M26.4,51.1c0.2,0.3,0.3,0.7,0.2,1c-0.1,0.4-0.3,0.7-0.6,0.9s-0.7,0.3-1,0.2
		c-0.4-0.1-0.7-0.3-0.9-0.6c-0.2-0.3-0.3-0.7-0.2-1c0.1-0.4,0.3-0.7,0.6-0.9c0.3-0.2,0.7-0.3,1-0.2S26.2,50.7,26.4,51.1z M31.6,5.7
		c0.3,0.5,0.4,1,0.2,1.6s-0.5,1-1,1.3s-1,0.4-1.6,0.2c-0.6-0.1-1-0.5-1.3-1s-0.4-1.1-0.2-1.6c0.1-0.6,0.5-1,1-1.3
		c0.5-0.3,1-0.4,1.6-0.3C30.8,4.9,31.3,5.2,31.6,5.7z M40.8,47.3c0.4,0.5,0.5,1.1,0.4,1.7c-0.1,0.6-0.4,1.1-0.9,1.5
		s-1.1,0.5-1.7,0.4c-0.6-0.1-1.1-0.4-1.4-0.9c-0.4-0.5-0.5-1.1-0.4-1.7c0.1-0.6,0.4-1.1,0.9-1.5s1.1-0.5,1.7-0.4
		C39.9,46.5,40.4,46.8,40.8,47.3z M47,17.3c0.3,0.4,0.4,0.9,0.3,1.4c-0.1,0.5-0.3,0.9-0.7,1.2c-0.4,0.3-0.9,0.4-1.4,0.3
		s-0.9-0.3-1.2-0.8c-0.3-0.4-0.4-0.9-0.3-1.4c0.1-0.5,0.3-0.9,0.8-1.2c0.4-0.3,0.9-0.4,1.4-0.3C46.4,16.6,46.8,16.9,47,17.3z
		 M50.1,30.6c0.1,0.4,0,0.7-0.2,1s-0.5,0.5-0.9,0.6c-0.4,0.1-0.7,0-1-0.2s-0.5-0.5-0.6-0.9s0-0.7,0.2-1s0.5-0.5,0.9-0.6s0.7,0,1,0.2
		C49.8,30,50,30.3,50.1,30.6z M52.4,24c0.1,0.3,0,0.5-0.1,0.8c-0.1,0.2-0.4,0.4-0.6,0.5c-0.3,0.1-0.5,0-0.8-0.2
		c-0.2-0.2-0.4-0.4-0.4-0.6c-0.1-0.3,0-0.5,0.1-0.8c0.1-0.2,0.4-0.4,0.6-0.4c0.3-0.1,0.5,0,0.7,0.1C52.2,23.5,52.3,23.7,52.4,24z"/>
</g>
</svg>
