<?xml version="1.0" encoding="utf-8"?>
<!-- Generator: Adobe Illustrator 22.1.0, SVG Export Plug-In . SVG Version: 6.00 Build 0)  -->
<svg version="1.1" id="Layer_1" xmlns="http://www.w3.org/2000/svg" xmlns:xlink="http://www.w3.org/1999/xlink" x="0px" y="0px"
	 viewBox="0 0 287 286.7" style="enable-background:new 0 0 287 286.7;" xml:space="preserve">
<style type="text/css">
	.st0{fill:#FFFFFF;}
</style>
<g id="Layer_3">
</g>
<g id="Layer_1_1_">
	<g id="slack">
		
			<rect x="123.5" y="123.6" transform="matrix(0.9482 -0.3176 0.3176 0.9482 -37.9951 53.0595)" class="st0" width="40.4" height="38.9"/>
		<g>
			
				<rect x="123.5" y="123.6" transform="matrix(0.9482 -0.3176 0.3176 0.9482 -37.9951 53.0597)" class="st0" width="40.4" height="38.9"/>
			<path class="st0" d="M274.9,103.9c-29.7-98.3-72.2-121.3-171-92.2C5.6,41.5-17.4,84,11.8,182.8c29.7,98.3,72.2,121.3,171,92.2
				C281.6,245.2,304.6,202.2,274.9,103.9z M225.3,167.9l-18.4,6.1l6.7,19.5c2.6,7.7-1.5,16.4-9.2,18.9c-1.5,0.5-3.6,1-5.1,1
				c-6.1,0-11.8-4.1-13.8-10.2l-7.2-19.5l-38.4,12.8l6.7,19.5c2.6,7.7-1.5,16.4-9.2,18.9c-1.5,0.5-3.6,1-5.1,1
				c-6.1,0-11.8-4.1-13.8-10.2l-6.7-19.5l-18.4,6.1c-1.5,0.5-3.6,1-5.1,1c-6.1,0-11.8-4.1-13.8-10.2c-2.6-7.7,1.5-16.4,9.2-18.9
				l18.4-6.1l-12.3-36.9l-18.4,6.1c-1.5,0.5-3.6,1-5.1,1c-6.1,0-11.8-4.1-13.8-10.2c-2.6-7.7,1.5-16.4,9.2-18.9l18.4-6.1l-6.7-19.5
				c-2.6-7.7,1.5-16.4,9.2-18.9c7.7-2.6,16.4,1.5,18.9,9.2l6.7,19.5l38.4-12.8l-5.6-19.5c-2.6-7.7,1.5-16.4,9.2-18.9
				c7.7-2.6,16.4,1.5,18.9,9.2l6.7,19.5l18.4-6.1c7.7-2.6,16.4,1.5,18.9,9.2s-1.5,16.4-9.2,18.9l-18.9,6.1l12.3,36.9l18.4-6.1
				c7.7-2.6,16.4,1.5,18.9,9.2C237.1,156.7,233,165.4,225.3,167.9z"/>
		</g>
	</g>
</g>
</svg>
