<svg width="28px" height="27px" viewBox="0 0 28 27" version="1.1" xmlns="http://www.w3.org/2000/svg" xmlns:xlink="http://www.w3.org/1999/xlink">
    <g id="Page-1" stroke="none" stroke-width="1" fill="none" fill-rule="evenodd">
        <g id="Group">
            <path d="M17.7725694,1.90190972 C17.3602431,0.664930556 16.0364583,-0.0078125 14.7994792,0.3828125 C13.5625,0.795138889 12.8897569,2.11892361 13.2803819,3.35590278 L19.3784722,22.1059028 C19.7907986,23.2560764 21.0494792,23.9071181 22.2430556,23.5598958 C23.5017361,23.1909722 24.2612847,21.8671875 23.8489583,20.6519097 C23.8489583,20.6085069 17.7725694,1.90190972 17.7725694,1.90190972 Z" id="Path" fill="#ECB32D"></path>
            <path d="M8.33246528,4.96180556 C7.92013889,3.72482639 6.59635417,3.05208333 5.359375,3.44270833 C4.12239583,3.85503472 3.44965278,5.17881944 3.84027778,6.41579861 L9.93836806,25.1657986 C10.3506944,26.3159722 11.609375,26.9670139 12.8029514,26.6197917 C14.0616319,26.2508681 14.8211806,24.9270833 14.4088542,23.7118056 C14.4088542,23.6684028 8.33246528,4.96180556 8.33246528,4.96180556 Z" id="Path" fill="#63C1A0"></path>
            <path d="M25.4548611,17.4184028 C26.6918403,17.0060764 27.3645833,15.6822917 26.9739583,14.4453125 C26.5616319,13.2083333 25.2378472,12.5355903 24.0008681,12.9262153 L5.22916667,19.0460069 C4.07899306,19.4583333 3.42795139,20.7170139 3.77517361,21.9105903 C4.14409722,23.1692708 5.46788194,23.9288194 6.68315972,23.5164931 C6.7265625,23.5164931 25.4548611,17.4184028 25.4548611,17.4184028 Z" id="Path" fill="#E01A59"></path>
            <path d="M9.13541667,22.7352431 C10.3506944,22.3446181 11.9348958,21.8237847 13.6276042,21.28125 C13.2369792,20.0659722 12.7161458,18.4817708 12.1736111,16.7890625 L7.68142361,18.2430556 L9.13541667,22.7352431 Z" id="Path" fill="#331433"></path>
            <path d="M18.5972222,19.6536458 C20.2899306,19.1111111 21.8741319,18.5902778 23.0894097,18.1996528 C22.6987847,16.984375 22.1779514,15.4001736 21.6354167,13.7074653 L17.1432292,15.1614583 L18.5972222,19.6536458 Z" id="Path" fill="#D62027"></path>
            <path d="M22.3732639,7.97829861 C23.6102431,7.56597222 24.2829861,6.2421875 23.8923611,5.00520833 C23.4800347,3.76822917 22.15625,3.09548611 20.9192708,3.48611111 L2.16927083,9.58420139 C1.01909722,9.99652778 0.368055556,11.2552083 0.715277778,12.4487847 C1.08420139,13.7074653 2.40798611,14.4670139 3.62326389,14.0546875 C3.66666667,14.0546875 22.3732639,7.97829861 22.3732639,7.97829861 Z" id="Path" fill="#89D3DF"></path>
            <path d="M6.07552083,13.2734375 C7.29079861,12.8828125 8.875,12.3619792 10.5677083,11.8194444 C10.0251736,10.1267361 9.50434028,8.54253472 9.11371528,7.32725694 L4.62152778,8.78125 L6.07552083,13.2734375 Z" id="Path" fill="#258B74"></path>
            <path d="M15.515625,10.2135417 C17.2083333,9.67100694 18.7925347,9.15017361 20.0078125,8.75954861 C19.4652778,7.06684028 18.9444444,5.48263889 18.5538194,4.26736111 L14.0616319,5.72135417 L15.515625,10.2135417 Z" id="Path" fill="#819C3C"></path>
        </g>
    </g>
</svg>