<?xml version="1.0" encoding="utf-8"?>
<!-- Generator: Adobe Illustrator 22.1.0, SVG Export Plug-In . SVG Version: 6.00 Build 0)  -->
<svg version="1.1" id="Capa_1" xmlns="http://www.w3.org/2000/svg" xmlns:xlink="http://www.w3.org/1999/xlink" x="0px" y="0px"
	 viewBox="0 0 511.6 511.6" style="enable-background:new 0 0 511.6 511.6;" xml:space="preserve">
<style type="text/css">
	.st0{fill:#FFFFFF;}
</style>
<g>
	<path class="st0" d="M488.3,140.8c-8.7-5-18-6.3-27.7-3.6l0,0L432.1,31.3c-2.6-9.6-8.3-16.9-17.1-22c-8.9-5.1-18.1-6.4-27.6-3.8
		c-65.8,93.3-138.7,150.8-218.6,172.2L36.4,213.3c-12.1,3.3-21.4,10.4-27.7,21.3c-6.3,11-7.8,22.5-4.6,34.6l14.2,52.9
		c3.3,12.1,10.4,21.4,21.3,27.7c11,6.3,22.5,7.8,34.6,4.6l33.6-9c-0.5,10.8,0.2,21.5,2.1,32.1c1.9,10.6,4,19.8,6.3,27.4
		c2.3,7.6,6.2,16.6,11.6,26.7c5.4,10.2,9.7,17.8,12.9,22.8c3.2,5.1,8.5,12.9,15.8,23.7c7.3,10.7,12.2,18.1,14.6,21.9
		c10.5,5.4,24,7.3,40.5,5.5c16.5-1.8,31.7-7,45.6-15.7c13.9-8.7,22.1-19.1,24.6-31.1c-8.5-3.6-15.4-6.8-20.7-9.4
		c-5.3-2.6-11-6-16.9-10.2c-6-4.2-10.4-8.4-13.3-12.7c-2.9-4.2-4.9-9.4-5.9-15.6c-1.1-6.1-0.6-12.7,1.5-19.8
		c-8.9-5.3-14.9-12.8-17.9-22.5c-3-9.7-2.6-19.7,1.1-30c3.7-10.3,10.5-18.6,20.2-24.9c74.2-13.4,158.3,1.4,252,44.6
		c9.6-2.6,16.9-8.3,22-17.1c5.1-8.9,6.4-18.1,3.8-27.6l-28.4-105.9c9.8-2.6,17.1-8.3,22.2-17c5-8.7,6.3-18,3.6-27.7
		C502.7,153.2,497,145.9,488.3,140.8z M470,313.2c-86.6-35.7-165.6-48-237-37.1l-20-74.5c66.7-26,128.8-76.5,186.4-151.5L470,313.2z
		"/>
</g>
</svg>
