<?xml version="1.0" encoding="utf-8"?>
<!-- Generator: Adobe Illustrator 22.1.0, SVG Export Plug-In . SVG Version: 6.00 Build 0)  -->
<svg version="1.1" id="Capa_1" xmlns="http://www.w3.org/2000/svg" xmlns:xlink="http://www.w3.org/1999/xlink" x="0px" y="0px"
	 viewBox="0 0 512 512" style="enable-background:new 0 0 512 512;" xml:space="preserve">
<style type="text/css">
	.st0{fill:#FFFFFF;}
</style>
<g>
	<g>
		<g>
			<circle class="st0" cx="256" cy="74.7" r="74.7"/>
			<path class="st0" d="M448.1,281.3c0.1-8.6,0.3-16.7,0.5-24.2c1.1-43.6,1.5-73.4-25.3-104.2c2.2-4.3,3.5-9.1,3.5-14.2
				c0-17.6-14.4-32-32-32s-32,14.4-32,32s14.4,32,32,32c4.7,0,9.2-1.1,13.2-2.9c20.7,24.4,20.3,48.2,19.3,88.8
				c-0.2,6.5-0.3,13.5-0.4,20.8c0,0-0.1,0-0.1,0h-21.3v-19.1c0-24.1-13.3-46-34.7-57c-26.9-13.9-68.5-30.5-114.7-30.5
				s-87.8,16.6-114.7,30.5c-21.4,11.1-34.7,32.9-34.7,57v19.1H86.1c-0.1-7.3-0.2-14.3-0.4-20.8c-1.1-40.6-1.4-64.4,19.3-88.8
				c4,1.8,8.5,2.9,13.2,2.9c17.6,0,32-14.4,32-32s-14.4-32-32-32s-32,14.4-32,32c0,5.1,1.3,9.9,3.5,14.2
				c-26.9,30.8-26.4,60.6-25.3,104.2c0.2,7.4,0.4,15.5,0.4,23.9c-25.2,8.6-43.5,32.2-43.5,60.3v21.3c0,29.9,20.7,54.9,48.4,61.9
				l15.8,78.9c1,5,5.4,8.6,10.5,8.6h320c5.1,0,9.5-3.6,10.5-8.6l15.8-78.9c27.7-7,48.4-32,48.4-61.9v-21.3
				C490.7,313.6,472.8,290.1,448.1,281.3z M448,362.7c0,11.8-9.6,21.3-21.3,21.3H85.3c-11.8,0-21.3-9.6-21.3-21.3v-21.3
				c0-11.8,9.6-21.3,21.3-21.3h341.3c11.8,0,21.3,9.6,21.3,21.3L448,362.7L448,362.7z"/>
		</g>
	</g>
</g>
</svg>
