<?xml version="1.0" encoding="iso-8859-1"?>
<!-- Generator: Adobe Illustrator 19.0.0, SVG Export Plug-In . SVG Version: 6.00 Build 0)  -->
<svg version="1.1" id="Capa_1" xmlns="http://www.w3.org/2000/svg" xmlns:xlink="http://www.w3.org/1999/xlink" x="0px" y="0px"
	 viewBox="0 0 512 512" style="enable-background:new 0 0 512 512;" xml:space="preserve">
<g>
	<g>
		<g>
			<circle cx="256" cy="74.667" r="74.667"/>
			<path d="M448.069,281.285c0.079-8.557,0.254-16.708,0.452-24.212c1.108-43.6,1.518-73.423-25.336-104.189
				c2.155-4.302,3.482-9.086,3.482-14.217c0-17.646-14.354-32-32-32s-32,14.354-32,32c0,17.646,14.354,32,32,32
				c4.728,0,9.182-1.095,13.225-2.943c20.69,24.365,20.349,48.204,19.296,88.797c-0.169,6.512-0.314,13.539-0.413,20.823
				c-0.036,0-0.072-0.01-0.108-0.01h-21.333V258.24c0-24.104-13.292-45.958-34.667-57.042
				c-26.854-13.927-68.542-30.531-114.667-30.531s-87.813,16.604-114.667,30.531c-21.375,11.083-34.667,32.938-34.667,57.042v19.094
				H86.142c-0.099-7.28-0.243-14.305-0.413-20.813c-1.053-40.592-1.395-64.432,19.296-88.797c4.043,1.848,8.497,2.943,13.225,2.943
				c17.646,0,32-14.354,32-32c0-17.646-14.354-32-32-32s-32,14.354-32,32c0,5.131,1.327,9.915,3.482,14.217
				c-26.854,30.766-26.444,60.589-25.336,104.189c0.195,7.421,0.366,15.479,0.448,23.928c-25.211,8.596-43.51,32.247-43.51,60.332
				v21.333c0,29.892,20.681,54.858,48.428,61.861l15.78,78.9c1,4.979,5.375,8.573,10.458,8.573h320
				c5.083,0,9.458-3.594,10.458-8.573l15.78-78.898c27.747-7.003,48.428-31.97,48.428-61.862v-21.333
				C490.667,313.583,472.813,290.138,448.069,281.285z M448,362.667c0,11.76-9.563,21.333-21.333,21.333H85.333
				C73.563,384,64,374.427,64,362.667v-21.333C64,329.573,73.563,320,85.333,320h341.333c11.771,0,21.333,9.573,21.333,21.333
				V362.667z"/>
		</g>
	</g>
</g>
<g>
</g>
<g>
</g>
<g>
</g>
<g>
</g>
<g>
</g>
<g>
</g>
<g>
</g>
<g>
</g>
<g>
</g>
<g>
</g>
<g>
</g>
<g>
</g>
<g>
</g>
<g>
</g>
<g>
</g>
</svg>
